# xmcd CD database file
#
# Track frame offsets:
#	150
#	7079
#	29800
#	43729
#	45933
#	61282
#	63985
#	83005
#	84484
#	105632
#	122977
#	123722
#	141706
#	159781
#	173909
#
# Disc length: 2322 seconds
#
# Revision: 10
# Processed by: cddbd v1.5.1PL0 Copyright (c) Steve Scherf et al.
# Submitted via: CDex 1.51
#
DISCID=cf09100f
DTITLE=Frenchi Fagiano e i Nedar Mùt - To Madar
DYEAR=2002
DGENRE=Rock Demenziale
TTITLE0=Intervista al Vampiro (di Stravecchio)
TTITLE1=SuperBiolco
TTITLE2=La Zanzara Acrobatica
TTITLE3=Am Casca li Bali
TTITLE4=Marco và dar via al cul
TTITLE5=Nà gran bèla punta
TTITLE6=Oh! Che Ccifùn (fai il fùting)
TTITLE7=Amica Negro
TTITLE8=Mamma, amo un hooligano
TTITLE9=Sandokan
TTITLE10=Aria di casa mia (mmmm)
TTITLE11=Na lit col pes gat
TTITLE12=Baciola
TTITLE13=Trita L'ài
TTITLE14=L'Augurio del Maestro
EXTD=YEAR: 2002
EXTT0=
EXTT1=
EXTT2=
EXTT3=
EXTT4=
EXTT5=
EXTT6=
EXTT7=
EXTT8=
EXTT9=
EXTT10=
EXTT11=
EXTT12=
EXTT13=
EXTT14=
PLAYORDER=
